<?xml version="1.0" standalone="no"?>
<!DOCTYPE svg PUBLIC "-//W3C//DTD SVG 20010904//EN"
 "http://www.w3.org/TR/2001/REC-SVG-20010904/DTD/svg10.dtd">
<svg version="1.0" xmlns="http://www.w3.org/2000/svg"
 width="32.000000pt" height="32.000000pt" viewBox="0 0 512.000000 512.000000"
 preserveAspectRatio="xMidYMid meet">

<g transform="translate(0.000000,512.000000) scale(0.100000,-0.100000)"
fill="#000000" stroke="none">
<path d="M197 4013 c-4 -3 -7 -660 -7 -1460 l0 -1453 195 0 195 0 2 1267 3
1268 370 -985 370 -985 200 -3 200 -2 363 967 c200 533 370 982 377 998 11 25
14 -171 14 -1247 l1 -1278 483 0 c265 0 532 5 592 10 423 39 709 135 935 316
116 92 202 202 273 345 111 225 157 462 157 801 -1 463 -110 795 -339 1032
-250 257 -605 381 -1171 406 -113 5 -413 10 -667 10 -451 0 -463 0 -473 -20
-8 -16 -693 -1823 -733 -1934 -7 -21 -12 -25 -18 -15 -4 8 -169 446 -367 974
-198 528 -363 968 -367 978 -7 16 -30 17 -294 17 -158 0 -291 -3 -294 -7z
m3491 -347 c397 -71 635 -263 747 -601 50 -150 68 -288 68 -500 0 -190 -11
-296 -45 -434 -97 -397 -359 -618 -811 -685 -78 -12 -189 -16 -441 -16 l-336
0 0 1131 0 1131 363 -5 c277 -3 384 -8 455 -21z"/>
</g>
</svg>
